<svg xmlns="http://www.w3.org/2000/svg" viewBox="0 0 98 22"><path fill="#FCBD1B" d="M24.7 7.5H13.3c-.5 0-.9.3-.9.9v5.2c0 .5.3.7.8.5 2.7-1.4 11.4-6.1 11.6-6.2.3-.2.4-.4-.1-.4M32.9 22h-6.8l-2.2-3.9H9.8l-2 3.9H.9c-.4 0-.8-.3-.5-.8C2.5 17.5 11.7 1 11.8.8c.3-.5.5-.8 1.3-.8h7.5c.8 0 1 .3 1.2.8.1.1 9.4 16.6 11.6 20.4.3.5-.1.8-.5.8m36.1-.8V.8c0-.4.4-.8.9-.8H89c5.5 0 8.2 1.3 8.2 5.7 0 3.2-1.1 4.2-2.7 4.8-.3.1-.3.4 0 .4 2.6.5 3.5 1.7 3.5 5 0 4.8-2.9 6.1-6.9 6.1H69.9c-.5 0-.9-.4-.9-.8m7.8-16.5v3.5h10.6c1.3 0 2-.5 2-1.7 0-1.3-.7-1.7-2-1.7 0-.1-10.6-.1-10.6-.1zm0 8.5V17h10.7c1.5 0 2.5-.6 2.5-1.9 0-1.5-1-2-2.5-2 0 .1-10.7.1-10.7.1zM0 .9V12c0 .5.3.4.4 0C.5 11.8 5.3 3.4 6.8.7c.2-.4 0-.7-.5-.7H.9C.3 0 0 .4 0 .9M45.7 8h11.8c3.8 0 6.9 2.5 6.9 5.5v3c0 3-3.1 5.5-6.9 5.5H43.7c-5.9 0-8.1-2.9-8.3-5.8 0-.3-.1-.9.9-.9h6.9c0 1.2 1 1.8 2.5 1.8H54c1.5 0 2.5-.6 2.5-1.8 0-1.5-1-1.8-2.5-1.8H43.5c-5.9 0-8-3-8-5.9V5.3c0-2.9 3-5.3 6.6-5.3h14.7c3.6 0 6.5 2.3 6.6 5.2 0 .4.1.9-.9.9h-7V5.8c-.2-.9-.9-1.2-2-1.2h-7.8c-1.3 0-2 .4-2 1.7-.1 1.3.7 1.7 2 1.7"/></svg>